<svg width="364" height="66" viewBox="0 0 364 66" fill="none" xmlns="http://www.w3.org/2000/svg">
<path d="M11.0155 13.3495L11.0109 13.3441L20.9481 4.63057C22.9856 2.79991 25.6201 1.76279 28.3664 1.71153L28.3894 1.71107L62.4432 1.71107C63.7038 1.65811 64.96 1.89403 66.1145 2.40038C67.2895 2.91564 68.3275 3.69721 69.1449 4.68307C69.9624 5.66846 70.5364 6.83021 70.8216 8.07531C71.1016 9.29892 71.0955 10.5715 70.8025 11.7928L68.1807 25.134C67.9475 26.2955 67.331 27.3465 66.4288 28.1203L66.3003 28.2305C66.5793 28.6515 66.7835 29.118 66.9032 29.6094C67.062 30.2613 67.0675 30.9396 66.9213 31.5919L64.2942 44.9581L64.2902 44.977C63.7789 47.3754 62.4911 49.5408 60.6239 51.1417L51.5258 59.1195C51.1048 59.6 50.6427 60.0477 50.1428 60.4569C48.1512 62.0872 45.6729 63.0156 43.095 63.0978L43.0521 63.0991L8.95702 63.0016C7.69776 63.0539 6.44311 62.818 5.28983 62.3122C4.11474 61.7968 3.0768 61.0153 2.25941 60.0297C1.44203 59.0442 0.867918 57.8824 0.582708 56.6369C0.302413 55.4128 0.309022 54.1412 0.601451 52.9206L7.11398 19.6973L7.12335 19.6568C7.6953 17.1881 9.06253 14.9735 11.0155 13.3495Z" fill="#207D83"/>
<path d="M9.48918 59.9317C8.59346 59.9769 7.6996 59.8119 6.87898 59.4502C6.05837 59.0886 5.33375 58.5402 4.76302 57.8488C4.19245 57.1573 3.79159 56.3421 3.59238 55.4682C3.39334 54.5943 3.40147 53.6859 3.61634 52.8157L10.1009 19.5711C10.5563 17.5959 11.6531 15.8268 13.22 14.5395C14.7868 13.2523 16.736 12.5194 18.7634 12.4551L52.6911 12.4551C53.5869 12.4106 54.481 12.5756 55.3019 12.9372C56.1228 13.2988 56.8479 13.8469 57.4194 14.5381C57.9909 15.2291 58.3931 16.044 58.5939 16.9178C58.7947 17.7914 58.7886 18.7002 58.576 19.5711L55.9577 33.0205C55.8043 33.677 55.4378 34.2643 54.9156 34.691C54.3934 35.1178 53.7447 35.3602 53.0703 35.3803C46.8794 35.1602 40.9331 34.6957 35.3906 32.7027L34.1672 25.012C34.1372 24.8263 34.0392 24.6585 33.8922 24.5409C33.7453 24.4235 33.5599 24.3647 33.3719 24.3762C33.1559 24.3799 32.9449 24.4407 32.7601 24.5523C32.5754 24.664 32.4233 24.8226 32.3197 25.012L28.1354 32.7027L19.7666 35.3436C19.5642 35.4084 19.382 35.5247 19.2382 35.6811C19.0945 35.8377 18.994 36.0289 18.9469 36.2361C18.899 36.4192 18.9215 36.6137 19.0097 36.7812C19.098 36.9486 19.2458 37.0768 19.4241 37.1409L26.7651 39.7697L27.9885 47.4601C28.0183 47.6469 28.1158 47.8162 28.2625 47.9358C28.4092 48.0552 28.5947 48.1166 28.7838 48.1083C29.001 48.1032 29.2129 48.0406 29.3978 47.9267C29.5828 47.8128 29.734 47.6518 29.836 47.4601L34.0203 39.7697C40.0881 38.0304 46.3664 37.1333 52.6788 37.1041C52.9818 37.0783 53.2865 37.1251 53.568 37.2399C53.8496 37.3549 54.0998 37.5346 54.298 37.765C54.4963 37.9954 54.637 38.2697 54.7086 38.565C54.7802 38.8603 54.7806 39.1687 54.7098 39.4641L52.0915 52.9136C51.6385 54.8879 50.5442 56.6567 48.9793 57.944C47.4145 59.2313 45.4671 59.9644 43.4413 60.0294L9.48918 59.9317Z" fill="white"/>
<path d="M95.1809 53.4753C91.7201 53.4753 88.6177 52.6874 85.8736 51.1116C83.1398 49.546 80.9793 47.2642 79.3922 44.266C77.8154 41.2781 77.027 37.6712 77.027 33.4451C77.027 29.1884 77.8205 25.5609 79.4076 22.5628C81.0049 19.5646 83.1756 17.2777 85.9197 15.7019C88.6637 14.126 91.7508 13.3381 95.1809 13.3381C97.4028 13.3381 99.4711 13.6502 101.386 14.2744C103.311 14.8986 105.016 15.8042 106.5 16.9912C107.985 18.1781 109.198 19.6363 110.14 21.3656C111.092 23.0846 111.717 25.0339 112.014 27.2135H103.905C103.731 26.1493 103.393 25.2028 102.891 24.3739C102.389 23.5451 101.77 22.8391 101.033 22.2558C100.285 21.6623 99.4302 21.2121 98.4677 20.9051C97.5052 20.6084 96.4659 20.46 95.3499 20.46C93.3123 20.46 91.5256 20.9665 89.9897 21.9795C88.4436 22.9926 87.2507 24.466 86.4111 26.4C85.5715 28.3237 85.1517 30.6721 85.1517 33.4451C85.1517 36.2591 85.5818 38.6279 86.4419 40.5516C87.3019 42.4753 88.4948 43.9232 90.0204 44.8953C91.5358 45.8777 93.3021 46.3688 95.3192 46.3688C96.4352 46.3688 97.4694 46.2153 98.4216 45.9084C99.3738 45.6014 100.234 45.1563 101.002 44.573C101.76 43.9898 102.389 43.2786 102.891 42.4395C103.393 41.6005 103.736 40.6539 103.92 39.6H112.029C111.825 41.4009 111.287 43.1353 110.417 44.8032C109.557 46.4609 108.41 47.9446 106.976 49.2544C105.533 50.5642 103.823 51.5977 101.847 52.3549C99.8704 53.1019 97.6486 53.4753 95.1809 53.4753ZM114.18 13.8753H122.059V52.9535H114.18V13.8753ZM135.359 53.3219C133.332 53.3219 131.555 52.8819 130.03 52.0019C128.514 51.1116 127.342 49.8428 126.513 48.1953C125.673 46.5377 125.253 44.5628 125.253 42.2707V23.6219H133.132V40.92C133.132 42.7312 133.603 44.1535 134.545 45.187C135.497 46.2205 136.793 46.7372 138.431 46.7372C139.557 46.7372 140.545 46.4967 141.395 46.0158C142.255 45.5349 142.926 44.8339 143.407 43.913C143.888 43.0023 144.129 41.8972 144.129 40.5977V23.6219H152.008V52.9535H144.574L144.467 45.6321H144.912C144.144 48.0981 142.972 49.9963 141.395 51.3265C139.808 52.6567 137.796 53.3219 135.359 53.3219ZM152.392 23.6219H169.793V29.6386H152.392V23.6219ZM156.431 45.0642V16.6535H164.31V44.3735C164.31 45.3046 164.515 45.9902 164.925 46.4302C165.334 46.8805 166.02 47.1056 166.983 47.1056C167.28 47.1056 167.699 47.0646 168.242 46.9828C168.785 46.9112 169.199 46.8395 169.486 46.7679L170.607 52.6618C169.737 52.9279 168.867 53.1121 167.996 53.2144C167.136 53.3167 166.312 53.3679 165.524 53.3679C162.585 53.3679 160.337 52.6516 158.781 51.2191C157.215 49.7865 156.431 47.7349 156.431 45.0642ZM184.553 53.5367C181.594 53.5367 179.039 52.9023 176.889 51.6335C174.749 50.3646 173.095 48.5944 171.928 46.3228C170.771 44.0614 170.193 41.4265 170.193 38.4181C170.193 35.3791 170.771 32.7288 171.928 30.4674C173.095 28.1958 174.749 26.4256 176.889 25.1567C179.039 23.8879 181.594 23.2535 184.553 23.2535C186.283 23.2535 187.881 23.4837 189.345 23.9442C190.819 24.3944 192.125 25.0391 193.261 25.8781C194.398 26.7172 195.335 27.7405 196.072 28.9479C196.809 30.1553 197.316 31.5112 197.592 33.0153L190.266 34.3814C190.113 33.6139 189.867 32.9284 189.529 32.3246C189.201 31.7209 188.802 31.2042 188.331 30.7744C187.85 30.3446 187.302 30.0172 186.688 29.7921C186.063 29.567 185.377 29.4544 184.63 29.4544C183.227 29.4544 182.049 29.8279 181.097 30.5749C180.145 31.3321 179.428 32.3809 178.947 33.7214C178.466 35.0721 178.225 36.6326 178.225 38.4028C178.225 40.1423 178.466 41.6823 178.947 43.0228C179.428 44.3632 180.145 45.4172 181.097 46.1846C182.049 46.9521 183.227 47.3358 184.63 47.3358C185.377 47.3358 186.068 47.2181 186.703 46.9828C187.328 46.7474 187.886 46.4098 188.377 45.9698C188.869 45.5195 189.278 44.9772 189.606 44.3428C189.944 43.7186 190.184 43.0126 190.328 42.2246L197.638 43.56C197.362 45.1153 196.855 46.5019 196.118 47.7195C195.381 48.9372 194.444 49.9809 193.307 50.8507C192.171 51.7307 190.865 52.3958 189.391 52.846C187.906 53.3065 186.294 53.5367 184.553 53.5367ZM207.437 35.9777V52.9535H199.558V13.8753H207.268V30.9433H206.639C207.407 28.4977 208.574 26.6046 210.14 25.2642C211.707 23.9237 213.734 23.2535 216.222 23.2535C218.25 23.2535 220.021 23.6986 221.537 24.5888C223.052 25.4688 224.224 26.7377 225.054 28.3953C225.883 30.0428 226.298 32.0126 226.298 34.3046V52.9535H218.434V35.6707C218.434 33.8493 217.963 32.4219 217.021 31.3884C216.089 30.3549 214.789 29.8381 213.12 29.8381C212.024 29.8381 211.041 30.0786 210.171 30.5595C209.311 31.0405 208.64 31.7363 208.159 32.647C207.678 33.5577 207.437 34.6679 207.437 35.9777ZM244.037 53.5367C240.904 53.5367 238.18 53.0558 235.866 52.0939C233.552 51.1321 231.745 49.7046 230.445 47.8116C229.154 45.9186 228.474 43.5907 228.402 40.8279H236.189C236.301 42.1479 236.696 43.2479 237.371 44.1279C238.057 45.0079 238.969 45.6679 240.105 46.1079C241.242 46.5479 242.527 46.7679 243.96 46.7679C245.394 46.7679 246.643 46.5632 247.708 46.1539C248.762 45.7344 249.587 45.1512 250.18 44.4042C250.774 43.647 251.071 42.7721 251.071 41.7795C251.071 40.8893 250.805 40.1423 250.273 39.5386C249.74 38.9349 248.977 38.413 247.984 37.973C246.981 37.533 245.762 37.1493 244.329 36.8219L240.028 35.7474C236.721 34.9391 234.131 33.6753 232.257 31.9563C230.383 30.2372 229.446 27.9605 229.446 25.126C229.446 22.7623 230.081 20.6953 231.351 18.9251C232.62 17.1651 234.361 15.7939 236.573 14.8116C238.784 13.8293 241.308 13.3381 244.144 13.3381C247.032 13.3381 249.551 13.8344 251.701 14.827C253.861 15.8195 255.546 17.1907 256.754 18.9405C257.952 20.7005 258.571 22.7265 258.612 25.0186H250.872C250.728 23.4428 250.058 22.2251 248.86 21.3656C247.662 20.5163 246.064 20.0916 244.068 20.0916C242.726 20.0916 241.574 20.2809 240.612 20.6595C239.65 21.0484 238.912 21.5805 238.4 22.2558C237.888 22.9414 237.632 23.7242 237.632 24.6042C237.632 25.566 237.929 26.3642 238.523 26.9986C239.107 27.633 239.875 28.1498 240.827 28.5488C241.779 28.9377 242.808 29.2651 243.914 29.5312L247.462 30.3907C249.1 30.7591 250.631 31.2605 252.054 31.8949C253.467 32.5191 254.706 33.2916 255.771 34.2126C256.846 35.1335 257.675 36.2232 258.259 37.4819C258.843 38.7405 259.135 40.1884 259.135 41.8256C259.135 44.1893 258.541 46.2512 257.353 48.0112C256.165 49.7712 254.44 51.1321 252.177 52.0939C249.924 53.0558 247.211 53.5367 244.037 53.5367ZM258.397 23.6219H275.799V29.6386H258.397V23.6219ZM262.437 45.0642V16.6535H270.316V44.3735C270.316 45.3046 270.52 45.9902 270.93 46.4302C271.34 46.8805 272.026 47.1056 272.988 47.1056C273.285 47.1056 273.705 47.0646 274.247 46.9828C274.79 46.9112 275.205 46.8395 275.491 46.7679L276.613 52.6618C275.742 52.9279 274.872 53.1121 274.002 53.2144C273.131 53.3167 272.302 53.3679 271.514 53.3679C268.575 53.3679 266.327 52.6516 264.771 51.2191C263.215 49.7865 262.437 47.7349 262.437 45.0642ZM285.613 53.5367C283.76 53.5367 282.091 53.2093 280.606 52.5544C279.131 51.8893 277.969 50.907 277.119 49.6074C276.27 48.3079 275.845 46.686 275.845 44.7419C275.845 43.1149 276.147 41.7488 276.751 40.6437C277.355 39.5488 278.179 38.6688 279.224 38.0037C280.268 37.3386 281.451 36.8321 282.771 36.4842C284.092 36.1363 285.475 35.8907 286.918 35.7474C288.618 35.5735 289.99 35.4098 291.034 35.2563C292.079 35.113 292.842 34.8777 293.323 34.5502C293.804 34.233 294.045 33.7572 294.045 33.1228V32.9846C294.045 32.1456 293.866 31.4395 293.507 30.8665C293.159 30.2935 292.647 29.8535 291.971 29.5465C291.285 29.2395 290.446 29.086 289.452 29.086C288.429 29.086 287.543 29.2395 286.795 29.5465C286.038 29.8535 285.423 30.2577 284.952 30.7591C284.481 31.2707 284.133 31.8386 283.908 32.4628L276.689 31.2656C277.201 29.567 278.041 28.1242 279.208 26.9372C280.386 25.74 281.845 24.8293 283.585 24.2051C285.326 23.5707 287.282 23.2535 289.452 23.2535C291.04 23.2535 292.575 23.4428 294.06 23.8214C295.555 24.2 296.891 24.7832 298.069 25.5712C299.246 26.3591 300.183 27.3823 300.879 28.6409C301.565 29.8995 301.908 31.4191 301.908 33.1995V52.9535H294.459V48.886H294.198C293.727 49.7967 293.098 50.5949 292.309 51.2805C291.521 51.9763 290.569 52.5237 289.452 52.9228C288.347 53.3321 287.067 53.5367 285.613 53.5367ZM287.84 47.9958C289.089 47.9958 290.179 47.7502 291.111 47.2591C292.043 46.7679 292.775 46.1028 293.307 45.2637C293.83 44.4246 294.091 43.4884 294.091 42.4549V39.293C293.866 39.467 293.517 39.6205 293.046 39.7535C292.575 39.8967 292.048 40.0195 291.464 40.1219C290.891 40.2344 290.323 40.3316 289.76 40.4135C289.197 40.5056 288.7 40.5772 288.27 40.6284C287.307 40.7614 286.458 40.9865 285.72 41.3037C284.983 41.6209 284.415 42.0353 284.016 42.547C283.606 43.0688 283.401 43.7288 283.401 44.527C283.401 45.2842 283.596 45.9186 283.985 46.4302C284.374 46.9521 284.896 47.3409 285.551 47.5967C286.207 47.8628 286.969 47.9958 287.84 47.9958ZM302.308 23.6219H319.709V29.6386H302.308V23.6219ZM306.347 45.0642V16.6535H314.226V44.3735C314.226 45.3046 314.431 45.9902 314.84 46.4302C315.25 46.8805 315.936 47.1056 316.898 47.1056C317.195 47.1056 317.615 47.0646 318.158 46.9828C318.7 46.9112 319.11 46.8395 319.387 46.7679L320.523 52.6618C319.642 52.9279 318.772 53.1121 317.912 53.2144C317.042 53.3167 316.212 53.3679 315.424 53.3679C312.485 53.3679 310.238 52.6516 308.682 51.2191C307.125 49.7865 306.347 47.7349 306.347 45.0642ZM332.979 53.5367C330.624 53.5367 328.535 53.1991 326.713 52.5237C324.89 51.8484 323.4 50.866 322.243 49.5767C321.096 48.2977 320.354 46.7474 320.016 44.926L327.342 43.6674C327.721 45.0284 328.392 46.0516 329.354 46.7372C330.317 47.4228 331.607 47.7656 333.225 47.7656C334.709 47.7656 335.887 47.4791 336.757 46.906C337.638 46.3432 338.078 45.6219 338.078 44.7419C338.078 43.9744 337.766 43.3451 337.141 42.8539C336.527 42.3628 335.58 41.9893 334.3 41.7335L329.231 40.6744C326.395 40.1014 324.276 39.1191 322.873 37.7274C321.48 36.3358 320.784 34.5451 320.784 32.3553C320.784 30.4726 321.296 28.8507 322.32 27.4898C323.354 26.1391 324.793 25.0953 326.636 24.3586C328.469 23.6219 330.629 23.2535 333.117 23.2535C335.421 23.2535 337.423 23.5758 339.122 24.2205C340.822 24.8549 342.199 25.7605 343.254 26.9372C344.298 28.1037 344.994 29.4851 345.343 31.0814L338.37 32.3093C338.073 31.3167 337.499 30.4981 336.65 29.8535C335.8 29.2191 334.658 28.9019 333.225 28.9019C331.924 28.9019 330.839 29.173 329.969 29.7153C329.088 30.2577 328.648 30.9739 328.648 31.8642C328.648 32.6112 328.934 33.2405 329.508 33.7521C330.071 34.2637 331.044 34.6577 332.426 34.9339L337.709 35.9777C340.546 36.5609 342.655 37.5023 344.037 38.8019C345.419 40.1014 346.111 41.8 346.111 43.8977C346.111 45.8214 345.547 47.5046 344.421 48.9474C343.305 50.3902 341.764 51.5158 339.798 52.3242C337.832 53.1325 335.559 53.5367 332.979 53.5367Z" fill="#111111"/>
</svg>
